<svg width="41" height="33" viewBox="0 0 41 33" fill="none" xmlns="http://www.w3.org/2000/svg">
<path d="M36.0193 0.729004H4.01929C1.81329 0.729004 0.0192871 2.523 0.0192871 4.729V28.729C0.0192871 30.935 1.81329 32.729 4.01929 32.729H36.0193C38.2253 32.729 40.0193 30.935 40.0193 28.729V4.729C40.0193 2.523 38.2253 0.729004 36.0193 0.729004ZM36.0193 4.729V5.751L20.0193 18.197L4.01929 5.753V4.729H36.0193ZM4.01929 28.729V10.817L18.7913 22.307C19.1415 22.5821 19.5739 22.7316 20.0193 22.7316C20.4646 22.7316 20.8971 22.5821 21.2473 22.307L36.0193 10.817L36.0233 28.729H4.01929Z" fill="black"/>
</svg>
