<svg width="19" height="19" viewBox="0 0 19 19" fill="none" xmlns="http://www.w3.org/2000/svg">
<path fill-rule="evenodd" clip-rule="evenodd" d="M13.0193 0.47168H5.01929C2.25787 0.47168 0.0192871 2.71026 0.0192871 5.47168V13.4717C0.0192871 16.2331 2.25787 18.4717 5.01929 18.4717H13.0193C15.7807 18.4717 18.0193 16.2331 18.0193 13.4717V5.47168C18.0193 2.71026 15.7807 0.47168 13.0193 0.47168ZM16.2693 13.4717C16.2638 15.2643 14.8119 16.7162 13.0193 16.7217H5.01929C3.22664 16.7162 1.77478 15.2643 1.76929 13.4717V5.47168C1.77478 3.67903 3.22664 2.22717 5.01929 2.22168H13.0193C14.8119 2.22717 16.2638 3.67903 16.2693 5.47168V13.4717ZM13.7693 5.72168C14.3216 5.72168 14.7693 5.27396 14.7693 4.72168C14.7693 4.1694 14.3216 3.72168 13.7693 3.72168C13.217 3.72168 12.7693 4.1694 12.7693 4.72168C12.7693 5.27396 13.217 5.72168 13.7693 5.72168ZM9.01929 4.97168C6.53401 4.97168 4.51929 6.9864 4.51929 9.47168C4.51929 11.957 6.53401 13.9717 9.01929 13.9717C11.5046 13.9717 13.5193 11.957 13.5193 9.47168C13.522 8.27738 13.0487 7.13125 12.2042 6.28676C11.3597 5.44227 10.2136 4.96902 9.01929 4.97168ZM6.26929 9.47168C6.26929 10.9905 7.50049 12.2217 9.01929 12.2217C10.5381 12.2217 11.7693 10.9905 11.7693 9.47168C11.7693 7.95288 10.5381 6.72168 9.01929 6.72168C7.50049 6.72168 6.26929 7.95288 6.26929 9.47168Z" fill="black"/>
</svg>
