<svg width="19" height="19" viewBox="0 0 19 19" fill="none" xmlns="http://www.w3.org/2000/svg">
<path fill-rule="evenodd" clip-rule="evenodd" d="M1.51953 0.47168C0.691101 0.47168 0.0195312 1.14325 0.0195312 1.97168V16.9717C0.0195312 17.8001 0.691101 18.4717 1.51953 18.4717H16.5195C17.3479 18.4717 18.0195 17.8001 18.0195 16.9717V1.97168C18.0195 1.14325 17.3479 0.47168 16.5195 0.47168H1.51953ZM5.54029 4.4744C5.54592 5.43065 4.83014 6.01987 3.98076 6.01565C3.1806 6.01143 2.4831 5.3744 2.48732 4.47581C2.49154 3.63065 3.15951 2.95143 4.02717 2.97112C4.90748 2.99081 5.54592 3.63628 5.54029 4.4744ZM9.29923 7.23344H6.77924H6.77783V15.7933H9.44123V15.5936C9.44123 15.2137 9.44093 14.8337 9.44063 14.4536C9.43983 13.4398 9.43893 12.4249 9.44413 11.4114C9.44553 11.1653 9.45673 10.9094 9.52003 10.6745C9.75763 9.79698 10.5466 9.23028 11.4269 9.36958C11.9922 9.45808 12.3662 9.78578 12.5237 10.3188C12.6208 10.652 12.6644 11.0106 12.6686 11.358C12.68 12.4056 12.6784 13.4532 12.6768 14.5009C12.6762 14.8707 12.6756 15.2407 12.6756 15.6105V15.7919H15.3475V15.5866C15.3475 15.1346 15.3473 14.6827 15.347 14.2308C15.3465 13.1013 15.3459 11.9718 15.3489 10.8419C15.3503 10.3314 15.2955 9.82798 15.1703 9.33438C14.9833 8.60028 14.5966 7.99278 13.968 7.55408C13.5222 7.24187 13.0328 7.04078 12.4858 7.01828C12.4235 7.01569 12.3607 7.0123 12.2976 7.00889C12.0179 6.99377 11.7336 6.97841 11.4662 7.03234C10.7012 7.18562 10.0291 7.53578 9.52143 8.15308C9.46243 8.22388 9.40473 8.29578 9.31863 8.40308L9.29923 8.42738V7.23344ZM2.70117 15.7961H5.35195V7.23901H2.70117V15.7961Z" fill="black"/>
</svg>
