<svg width="33" height="41" viewBox="0 0 33 41" fill="none" xmlns="http://www.w3.org/2000/svg">
<path d="M16.6862 24.729C21.0982 24.729 24.6862 21.141 24.6862 16.729C24.6862 12.317 21.0982 8.729 16.6862 8.729C12.2742 8.729 8.68616 12.317 8.68616 16.729C8.68616 21.141 12.2742 24.729 16.6862 24.729ZM16.6862 12.729C18.8922 12.729 20.6862 14.523 20.6862 16.729C20.6862 18.935 18.8922 20.729 16.6862 20.729C14.4802 20.729 12.6862 18.935 12.6862 16.729C12.6862 14.523 14.4802 12.729 16.6862 12.729ZM15.5262 40.357C15.8647 40.5987 16.2703 40.7287 16.6862 40.7287C17.1022 40.7287 17.5077 40.5987 17.8462 40.357C18.4542 39.927 32.7442 29.609 32.6862 16.729C32.6862 7.907 25.5082 0.729004 16.6862 0.729004C7.86421 0.729004 0.686211 7.907 0.686211 16.719C0.628211 29.609 14.9182 39.927 15.5262 40.357ZM16.6862 4.729C23.3042 4.729 28.6862 10.111 28.6862 16.739C28.7282 25.615 19.9102 33.585 16.6862 36.199C13.4642 33.583 4.64421 25.611 4.68621 16.729C4.68621 10.111 10.0682 4.729 16.6862 4.729Z" fill="black"/>
<path d="M16.6862 24.729C21.0982 24.729 24.6862 21.141 24.6862 16.729C24.6862 12.317 21.0982 8.729 16.6862 8.729C12.2742 8.729 8.68616 12.317 8.68616 16.729C8.68616 21.141 12.2742 24.729 16.6862 24.729ZM16.6862 12.729C18.8922 12.729 20.6862 14.523 20.6862 16.729C20.6862 18.935 18.8922 20.729 16.6862 20.729C14.4802 20.729 12.6862 18.935 12.6862 16.729C12.6862 14.523 14.4802 12.729 16.6862 12.729ZM15.5262 40.357C15.8647 40.5987 16.2703 40.7287 16.6862 40.7287C17.1022 40.7287 17.5077 40.5987 17.8462 40.357C18.4542 39.927 32.7442 29.609 32.6862 16.729C32.6862 7.907 25.5082 0.729004 16.6862 0.729004C7.86421 0.729004 0.686211 7.907 0.686211 16.719C0.628211 29.609 14.9182 39.927 15.5262 40.357ZM16.6862 4.729C23.3042 4.729 28.6862 10.111 28.6862 16.739C28.7282 25.615 19.9102 33.585 16.6862 36.199C13.4642 33.583 4.64421 25.611 4.68621 16.729C4.68621 10.111 10.0682 4.729 16.6862 4.729Z" fill="black"/>
</svg>
