<svg width="39" height="39" viewBox="0 0 39 39" fill="none" xmlns="http://www.w3.org/2000/svg">
<path d="M29.7667 21.3149C29.5811 21.129 29.3607 20.9816 29.1181 20.8809C28.8755 20.7803 28.6154 20.7285 28.3527 20.7285C28.0901 20.7285 27.83 20.7803 27.5873 20.8809C27.3447 20.9816 27.1243 21.129 26.9387 21.3149L23.7507 24.5029C22.2727 24.0629 19.5147 23.0629 17.7667 21.3149C16.0187 19.5669 15.0187 16.8089 14.5787 15.3309L17.7667 12.1429C17.9526 11.9573 18.1001 11.7369 18.2007 11.4943C18.3013 11.2517 18.3531 10.9916 18.3531 10.7289C18.3531 10.4663 18.3013 10.2062 18.2007 9.96353C18.1001 9.7209 17.9526 9.50049 17.7667 9.31492L9.76672 1.31492C9.58114 1.12903 9.36073 0.981551 9.1181 0.880929C8.87547 0.780308 8.61539 0.728516 8.35272 0.728516C8.09005 0.728516 7.82996 0.780308 7.58733 0.880929C7.3447 0.981551 7.12429 1.12903 6.93872 1.31492L1.51472 6.73892C0.754719 7.49892 0.326718 8.54292 0.342718 9.60892C0.388718 12.4569 1.14272 22.3489 8.93872 30.1449C16.7347 37.9409 26.6267 38.6929 29.4767 38.7409H29.5327C30.5887 38.7409 31.5867 38.3249 32.3427 37.5689L37.7667 32.1449C37.9526 31.9593 38.1001 31.7389 38.2007 31.4963C38.3013 31.2537 38.3531 30.9936 38.3531 30.7309C38.3531 30.4683 38.3013 30.2082 38.2007 29.9655C38.1001 29.7229 37.9526 29.5025 37.7667 29.3169L29.7667 21.3149ZM29.5127 34.7389C27.0167 34.6969 18.4767 34.0269 11.7667 27.3149C5.03472 20.5829 4.38272 12.0129 4.34272 9.56692L8.35272 5.55692L13.5247 10.7289L10.9387 13.3149C10.7036 13.5498 10.5308 13.8396 10.4358 14.1581C10.3408 14.4765 10.3267 14.8136 10.3947 15.1389C10.4427 15.3689 11.6167 20.8229 14.9367 24.1429C18.2567 27.4629 23.7107 28.6369 23.9407 28.6849C24.2658 28.7548 24.6033 28.7418 24.922 28.6471C25.2408 28.5524 25.5306 28.379 25.7647 28.1429L28.3527 25.5569L33.5247 30.7289L29.5127 34.7389Z" fill="black"/>
</svg>
