<?xml version="1.0" encoding="UTF-8"?>
<svg xmlns="http://www.w3.org/2000/svg" version="1.1" width="100px" height="100px" style="shape-rendering:geometricPrecision; text-rendering:geometricPrecision; image-rendering:optimizeQuality; fill-rule:evenodd; clip-rule:evenodd" xmlns:xlink="http://www.w3.org/1999/xlink">
<g><path  fill="#000000" d="M 99.5,38.5 C 99.5,44.8333 99.5,51.1667 99.5,57.5C 97.0406,61.7384 94.5406,66.0717 92,70.5C 91.0161,75.4066 89.8494,80.2399 88.5,85C 60.5,85.6667 32.5,85.6667 4.5,85C 2.41196,77.1827 0.745296,69.3494 -0.5,61.5C -0.5,58.1667 -0.5,54.8333 -0.5,51.5C 0.117425,51.3893 0.617425,51.056 1,50.5C 1.49935,45.1771 1.66602,39.8437 1.5,34.5C 5.5,34.5 9.5,34.5 13.5,34.5C 13.3367,32.1432 13.5034,29.8098 14,27.5C 15.0113,26.6634 16.1779,26.33 17.5,26.5C 17.6378,22.2673 17.1378,18.2673 16,14.5C 21.6667,13.1667 27.3333,13.1667 33,14.5C 31.8622,18.2673 31.3622,22.2673 31.5,26.5C 36.8333,26.5 42.1667,26.5 47.5,26.5C 47.5,29.1667 47.5,31.8333 47.5,34.5C 51.7675,34.203 55.9341,34.5363 60,35.5C 60.1705,40.8642 60.6705,46.1975 61.5,51.5C 66.1638,48.6888 68.9972,44.6888 70,39.5C 71.3561,38.6198 72.8561,38.2865 74.5,38.5C 74.5,39.8333 74.5,41.1667 74.5,42.5C 75.8333,42.5 77.1667,42.5 78.5,42.5C 78.3501,38.8388 79.8501,37.8388 83,39.5C 83.4828,40.448 83.6495,41.448 83.5,42.5C 84.5,42.5 85.5,42.5 86.5,42.5C 86.3501,38.8388 87.8501,37.8388 91,39.5C 91.4828,40.448 91.6495,41.448 91.5,42.5C 92.5,42.5 93.5,42.5 94.5,42.5C 94.3838,39.0897 96.0504,37.7564 99.5,38.5 Z M 22.5,18.5 C 23.8333,18.5 25.1667,18.5 26.5,18.5C 26.5,21.1667 26.5,23.8333 26.5,26.5C 25.1667,26.5 23.8333,26.5 22.5,26.5C 22.5,23.8333 22.5,21.1667 22.5,18.5 Z M 18.5,31.5 C 22.5,31.5 26.5,31.5 30.5,31.5C 30.5,38.1667 30.5,44.8333 30.5,51.5C 26.5,51.5 22.5,51.5 18.5,51.5C 18.5,44.8333 18.5,38.1667 18.5,31.5 Z M 35.5,31.5 C 37.8333,31.5 40.1667,31.5 42.5,31.5C 42.5,32.5 42.5,33.5 42.5,34.5C 40.1667,34.5 37.8333,34.5 35.5,34.5C 35.5,33.5 35.5,32.5 35.5,31.5 Z M 6.5,39.5 C 8.83333,39.5 11.1667,39.5 13.5,39.5C 13.5,40.5 13.5,41.5 13.5,42.5C 11.1667,42.5 8.83333,42.5 6.5,42.5C 6.5,41.5 6.5,40.5 6.5,39.5 Z M 35.5,39.5 C 37.8333,39.5 40.1667,39.5 42.5,39.5C 42.5,40.5 42.5,41.5 42.5,42.5C 40.1667,42.5 37.8333,42.5 35.5,42.5C 35.5,41.5 35.5,40.5 35.5,39.5 Z M 47.5,39.5 C 50.1667,39.5 52.8333,39.5 55.5,39.5C 55.5,40.5 55.5,41.5 55.5,42.5C 52.8333,42.5 50.1667,42.5 47.5,42.5C 47.5,41.5 47.5,40.5 47.5,39.5 Z M 6.5,47.5 C 8.83333,47.5 11.1667,47.5 13.5,47.5C 13.5,48.8333 13.5,50.1667 13.5,51.5C 11.1667,51.5 8.83333,51.5 6.5,51.5C 6.5,50.1667 6.5,48.8333 6.5,47.5 Z M 35.5,47.5 C 37.8333,47.5 40.1667,47.5 42.5,47.5C 42.5,48.8333 42.5,50.1667 42.5,51.5C 40.1667,51.5 37.8333,51.5 35.5,51.5C 35.5,50.1667 35.5,48.8333 35.5,47.5 Z M 47.5,47.5 C 50.1667,47.5 52.8333,47.5 55.5,47.5C 55.5,48.8333 55.5,50.1667 55.5,51.5C 52.8333,51.5 50.1667,51.5 47.5,51.5C 47.5,50.1667 47.5,48.8333 47.5,47.5 Z M 73.5,47.5 C 80.5,47.5 87.5,47.5 94.5,47.5C 94.7006,50.7281 94.3672,53.8948 93.5,57C 90.2282,61.3771 87.8948,66.2104 86.5,71.5C 59.8333,71.5 33.1667,71.5 6.5,71.5C 6.15843,66.4516 5.49177,61.4516 4.5,56.5C 24.8361,56.6666 45.1694,56.5 65.5,56C 68.3714,53.2972 71.0381,50.4639 73.5,47.5 Z M 7.5,77.5 C 33.5021,77.3334 59.5021,77.5 85.5,78C 85.0426,78.414 84.7093,78.914 84.5,79.5C 59.1732,80.6665 33.8399,80.8332 8.5,80C 7.74756,79.3292 7.41423,78.4959 7.5,77.5 Z"/></g>
<g><path  fill="#000000" d="M 22.5,34.5 C 26.0229,34.188 27.3563,35.5213 26.5,38.5C 22.4668,39.7474 21.1335,38.414 22.5,34.5 Z"/></g>
<g><path  fill="#000000" d="M 23.5,42.5 C 26.4872,42.9478 27.4872,44.4478 26.5,47C 21.5219,47.8641 20.5219,46.3641 23.5,42.5 Z"/></g>
<g><path  fill="#000000" d="M 16.5,61.5 C 19.9103,61.3838 21.2436,63.0504 20.5,66.5C 16.065,67.0776 14.7317,65.4109 16.5,61.5 Z"/></g>
<g><path  fill="#000000" d="M 24.5,61.5 C 28.6759,60.8307 30.0093,62.3307 28.5,66C 27.2068,66.49 25.8734,66.6567 24.5,66.5C 24.5,64.8333 24.5,63.1667 24.5,61.5 Z"/></g>
</svg>
