<?xml version="1.0" standalone="no"?>
<svg version="1.0" xmlns="http://www.w3.org/2000/svg"
 width="100.000000pt" height="100.000000pt" viewBox="0 0 100.000000 100.000000"
 preserveAspectRatio="xMidYMid meet">

<g transform="translate(0.000000,100.000000) scale(0.100000,-0.100000)"
fill="#000000" stroke="none">
<path d="M5 747 c-3 -7 -4 -100 -3 -207 3 -188 4 -195 23 -198 17 -2 20 -9 17
-37 -9 -72 81 -113 133 -60 l25 24 25 -24 c52 -53 142 -12 133 61 -4 33 -3 34
32 34 35 0 36 -1 32 -34 -8 -70 74 -111 131 -66 21 17 40 20 127 20 87 0 106
-3 127 -20 14 -11 37 -20 51 -20 36 0 131 66 138 96 4 13 4 68 2 122 -3 87 -7
103 -38 160 -48 90 -69 104 -152 100 l-67 -3 -3 30 -3 30 -363 3 c-289 2 -364
0 -367 -11z m695 -197 l0 -170 -330 0 -330 0 0 170 0 170 330 0 330 0 0 -170z
m185 90 c18 -20 17 -20 -21 -20 -22 0 -45 -5 -52 -12 -16 -16 -16 -100 0 -116
7 -7 40 -12 80 -12 l68 0 0 -78 c0 -43 -3 -82 -7 -85 -3 -4 -14 6 -24 23 -34
55 -112 51 -139 -7 l-15 -33 -96 0 c-88 0 -97 2 -102 20 -5 18 1 19 77 22 l81
3 3 145 c1 80 4 151 7 158 3 8 25 12 63 12 46 0 63 -4 77 -20z m53 -85 c7 -14
12 -28 12 -30 0 -3 -25 -5 -55 -5 -54 0 -55 0 -55 30 0 29 2 30 43 30 37 0 46
-4 55 -25z m-788 -230 c26 -32 -13 -81 -47 -59 -23 14 -28 41 -13 59 16 19 44
19 60 0z m160 0 c26 -32 -13 -81 -47 -59 -23 14 -28 41 -13 59 16 19 44 19 60
0z m220 0 c15 -18 10 -45 -12 -59 -35 -22 -74 27 -48 59 16 19 44 19 60 0z
m360 0 c26 -32 -13 -81 -47 -59 -23 14 -28 41 -13 59 16 19 44 19 60 0z"/>
</g>
</svg>